<svg width="877" height="280" viewBox="0 0 877 280" fill="none" xmlns="http://www.w3.org/2000/svg">
<path d="M413 165.285C426.569 167.226 437 178.894 437 193V251C437 265.106 426.569 276.773 413 278.714V279H332V278.98C316.999 278.454 305 266.129 305 251V193C305 177.871 316.999 165.545 332 165.019V165H413V165.285ZM334 190V254H408V190H334Z" fill="#4AB0E3"/>
<path d="M562 190H482V254H554V234H513L533 212H582V279H481C465.536 279 453 266.464 453 251V193C453 178.55 463.947 166.656 478 165.159V165H582L562 190Z" fill="#4AB0E3"/>
<path d="M855 190H783V211H858V233H783V254H877L857 279H754V165H877L855 190Z" fill="#4AB0E3"/>
<path d="M630 165H601V251.5C601 266.964 613.536 279.5 629 279.5H708C723.464 279.5 736 266.964 736 251.5V165H707.5V254H630V165Z" fill="#4AB0E3"/>
<path d="M261 165.019C276.001 165.545 288 177.871 288 193V211C288 225.106 277.569 236.773 264 238.714V239H261.841L293.5 278H258L227.561 239H186V279H157V165H261V165.019ZM186 214H259V190H186V214Z" fill="#4AB0E3"/>
<path d="M100.126 52.1191L135.478 1.90234L128.636 59.7275L159.997 92.2285L190.976 109.945L184.565 123.943C180.828 132.104 172.676 137.336 163.701 137.336H127.115L125.002 218L85.8008 176.945L43.3477 218V156.616H0L100.126 0V52.1191ZM104.996 76.3232C97.7138 84.1765 95.7382 88.8813 94.6211 97.5908L133.583 99.2598L104.996 76.3232Z" fill="#4AB0E3"/>
<path d="M413 165.285C426.569 167.226 437 178.894 437 193V251C437 265.106 426.569 276.773 413 278.714V279H332V278.98C316.999 278.454 305 266.129 305 251V193C305 177.871 316.999 165.545 332 165.019V165H413V165.285ZM334 190V254H408V190H334Z" fill="#4AB0E3"/>
<path d="M562 190H482V254H554V234H513L533 212H582V279H481C465.536 279 453 266.464 453 251V193C453 178.55 463.947 166.656 478 165.159V165H582L562 190Z" fill="#4AB0E3"/>
<path d="M855 190H783V211H858V233H783V254H877L857 279H754V165H877L855 190Z" fill="#4AB0E3"/>
<path d="M630 165H601V251.5C601 266.964 613.536 279.5 629 279.5H708C723.464 279.5 736 266.964 736 251.5V165H707.5V254H630V165Z" fill="#4AB0E3"/>
<path d="M261 165.019C276.001 165.545 288 177.871 288 193V211C288 225.106 277.569 236.773 264 238.714V239H261.841L293.5 278H258L227.561 239H186V279H157V165H261V165.019ZM186 214H259V190H186V214Z" fill="#4AB0E3"/>
</svg>
