<svg width="612" height="591" viewBox="0 0 612 591" fill="none" xmlns="http://www.w3.org/2000/svg">
<g opacity="0.8">
<path d="M218.503 80.6239C239.191 44.7911 290.911 44.791 311.599 80.6238L448.043 316.952C468.731 352.785 442.871 397.576 401.495 397.576H128.606C87.2303 397.576 61.3702 352.785 82.0583 316.952L218.503 80.6239Z" fill="#6395C4"/>
<path d="M285.164 156.741L281.597 287.903H248.12L244.462 156.741H285.164ZM264.858 346.441C258.822 346.441 253.639 344.306 249.309 340.038C244.98 335.709 242.846 330.526 242.907 324.489C242.846 318.513 244.98 313.391 249.309 309.123C253.639 304.854 258.822 302.72 264.858 302.72C270.651 302.72 275.743 304.854 280.133 309.123C284.524 313.391 286.749 318.513 286.81 324.489C286.749 328.513 285.682 332.202 283.609 335.556C281.597 338.849 278.944 341.501 275.651 343.514C272.359 345.465 268.761 346.441 264.858 346.441Z" fill="#124B81"/>
<path d="M537.973 540.291L504.555 503.586L536.329 509.064L565.912 545.769L596.043 574.804L601.521 575.9C606.999 579.552 616.313 587.404 609.739 589.596C603.165 591.787 590.199 590.509 584.538 589.596L567.008 568.23L537.973 540.291Z" fill="#59C2F6"/>
<path d="M520.99 483.865L516.06 469.621L496.885 467.43L485.381 476.195C491.787 485.344 494.032 489.89 496.885 497.561L507.842 506.874L545.095 530.43L539.616 513.995L520.99 483.865Z" fill="#124B81"/>
<path d="M92.0396 517.279C99.0519 507.637 108.475 490.253 112.309 482.766L141.891 483.861C136.596 489.34 124.142 502.488 116.691 511.253C109.241 520.018 93.8647 547.41 87.1081 560.01C87.4733 561.288 88.2038 565.05 88.2038 569.871C88.2038 574.692 86.0124 578.089 84.9168 579.184H60.2643L54.2392 575.349C54.0565 573.523 54.3487 568.666 56.9783 563.845C60.2653 557.819 83.2743 529.331 92.0396 517.279Z" fill="#94DBFF"/>
<path d="M507.297 555.088L481.549 529.34L460.184 534.27L475.523 547.418C478.262 551.618 486.48 561.662 497.436 572.619C508.393 583.575 519.897 581.932 524.28 579.74L521.541 572.619L507.297 555.088Z" fill="#59C2F6"/>
<path d="M261.316 428.534L226.803 423.056L256.386 395.664L291.995 406.073C301.513 421.066 306.352 429.562 312.813 444.969C312.813 446.065 313.032 453.296 309.526 464.691C305.143 478.935 306.786 492.631 307.334 497.561C307.882 502.492 315.004 510.161 330.891 523.309C343.601 533.828 357.37 541.205 362.665 543.579C364.309 543.762 368.144 544.346 370.335 545.222C372.526 546.099 377.457 554.353 379.648 558.37C375.448 559.101 366.171 560.562 362.665 560.562C359.159 560.562 333.082 544.127 320.482 535.909C310.256 527.144 289.584 509.285 288.708 507.97C287.612 506.326 283.777 501.944 283.777 499.205C283.777 496.465 288.708 475.648 288.708 470.717C288.708 465.787 288.708 460.856 285.421 454.282C282.791 449.023 268.255 434.925 261.316 428.534Z" fill="#94DBFF"/>
<path d="M261.316 428.534L226.803 423.056L256.386 395.664L291.995 406.073C301.513 421.066 306.352 429.562 312.813 444.969C312.813 446.065 313.032 453.296 309.526 464.691C308.43 463.048 302.952 458.665 299.665 455.926C297.56 454.172 288.708 470.717 288.708 470.717C288.708 470.717 288.708 460.856 285.421 454.282C282.791 449.023 268.255 434.925 261.316 428.534Z" fill="#124B81"/>
<path d="M342.395 327.184C332.753 327.622 308.429 333.21 297.473 335.949L387.865 397.854L425.118 456.472L439.909 447.159L434.979 367.175L374.169 324.992C367.595 325.54 352.037 326.745 342.395 327.184Z" fill="#124B81"/>
<path d="M173.664 374.845C185.497 370.901 231.186 357.132 252.552 350.741L225.707 372.654C212.742 385.072 183.305 413.194 169.28 426.342C155.256 439.49 120.341 459.942 104.636 468.525L115.593 455.925C93.1316 472.36 66.2878 464.69 58.6181 461.403L81.6271 454.547C59.2612 452.313 31.2475 446.085 13.6958 428.533C13.6958 428.533 26.92 431.173 33.4178 428.533C33.4188 428.533 33.4197 428.534 33.4206 428.534C32.691 428.321 23.2431 425.402 6.574 414.289H36.7048C13.9434 392.186 6.56642 380.406 0 360.054L13.6958 368.271C7.18818 346.158 6.81372 333.973 13.6958 311.845L20.8177 339.784C23.2167 324.626 19.1742 298.697 36.7048 280.618V296.065C37.8838 288.301 94.3486 243.219 101.349 222C115.609 231.054 132.028 253.774 129.836 280.07C129.836 280.07 134.219 278.427 135.863 276.783C136.791 278.256 134.219 285.549 132.028 289.931C129.286 295.415 120.523 309.653 101.897 317.871C107.631 318.321 113.001 318.915 118.332 321.158C109.567 323.897 96.5776 330.859 92.5847 333.758C91.8542 339.419 91.3795 353.809 95.3239 366.08C99.2683 378.352 121.437 387.628 132.029 390.733C140.977 387.08 161.831 378.79 173.664 374.845Z" fill="#4AB0E3"/>
<path d="M301.312 411.556L258.033 404.982C260.042 402.973 265.374 398.408 270.633 396.217C275.893 394.025 295.103 390.19 304.051 388.547C311.356 392.016 327.937 400.161 335.825 404.982C343.714 409.803 362.487 429.269 370.339 438.948L393.896 448.261L382.939 460.861C368.062 456.081 360.643 452.584 348.426 445.522C346.052 442.417 339.77 435.003 333.634 430.182C327.498 425.361 309.53 415.756 301.312 411.556Z" fill="#59C2F6"/>
<path d="M155.583 448.803L180.784 420.316L284.872 344.715L334.177 367.176L391.151 402.237L401.56 436.751L395.534 449.351L369.786 440.586C365.586 435.107 355.323 422.398 347.873 415.385C340.422 408.373 315.551 394.568 304.046 388.541L260.767 404.429L201.601 443.325C189.549 450.629 164.239 466.115 159.418 469.621C154.597 473.127 141.705 484.96 135.861 490.438L105.73 507.969L112.304 482.769C119.792 477.838 135.752 467.429 139.696 465.238C143.641 463.047 151.931 453.368 155.583 448.803Z" fill="#4AB0E3"/>
<path d="M220.228 417.573C229.431 412.314 266.428 379.956 283.776 364.434C292.542 364.434 312.589 364.617 321.577 368.268C339.107 375.39 331.986 379.773 342.395 391.277C350.722 400.481 368.325 406.252 378.004 410.999L400.465 437.295C388.431 454.139 380.476 461.265 364.308 470.165C371.064 474 386.769 482.985 395.534 488.244C404.3 493.503 447.031 525.131 467.3 540.288C477.517 540.124 482.13 539.131 485.379 533.166C480.448 528.601 467.3 515.088 451.413 504.131C431.199 490.19 422.378 480.574 414.708 474.548C410.856 471.521 422.561 459.574 427.856 454.826L423.474 420.313L404.847 394.564C396.813 389.817 379.099 372.761 361.569 364.434C344.038 356.107 321.577 344.164 299.116 335.398C294.003 336.494 280.708 339.781 268.437 344.164C253.098 349.642 244.88 354.573 234.471 360.599C224.063 366.625 190.645 398.399 182.975 406.617C176.839 413.191 170.558 428.347 168.184 435.104L190.645 429.626C196.671 427.8 211.024 422.833 220.228 417.573Z" fill="#94DBFF"/>
<path d="M409.783 404.977L445.392 406.62L518.254 417.577L550.576 460.308L569.75 501.943C566.646 502.308 559.561 502.381 556.055 499.752C551.672 496.465 544.002 484.96 531.95 479.482C522.308 475.099 505.289 479.847 497.984 482.769L499.628 476.195L481.001 482.769V470.169L460.732 484.96L465.662 462.499L443.201 482.769L439.366 462.499L421.836 470.169L426.218 457.569L421.836 427.438L409.783 404.977Z" fill="#59C2F6"/>
<path d="M535.78 344.161C537.423 354.935 545.093 387.44 545.093 387.44L558.789 379.77C560.407 383.547 556.598 399.492 552.215 409.353L571.389 397.301C573.959 400.75 565.911 424.145 562.624 428.527L567.006 445.51V464.136L577.963 501.937H569.198C567.006 499.928 560.213 489.337 550.571 478.38C540.93 467.423 523.728 452.084 500.719 445.51L505.649 441.127L464.562 445.51L478.805 428.527H444.292L464.562 416.475L431.692 417.571L443.196 408.257L410.874 389.631L436.074 391.822L426.213 387.44L392.795 371.553L426.213 364.431L380.195 344.161H403.752L376.908 329.917L350.064 317.865L376.908 312.934H390.056L364.856 295.404H387.317L422.378 307.456L407.039 281.16L460.179 315.126L449.77 288.83L491.405 317.865L529.206 361.144L535.78 344.161Z" fill="#94DBFF"/>
<path d="M559.886 462.494L552.764 452.633L553.312 461.946L558.79 472.355L559.886 462.494Z" fill="#124B81"/>
</g>
</svg>
