<svg width="679" height="585" viewBox="0 0 679 585" fill="none" xmlns="http://www.w3.org/2000/svg">
<g opacity="0.8">
<path d="M421.134 222.461C422.945 216.74 425.166 212.139 424.811 204.22C393.702 60.6319 550.024 18.7994 617.747 90.1361C688.933 165.121 634.773 306.361 507.088 280.619L494.409 289.191L490.978 313.279L480.055 322.932L447.64 312.669L430.973 318.93L420.462 314.029L404.073 317.756L403.962 331.357L386.812 378.898L376.802 375.728L363.988 396.321L337.208 403.051L322.599 440.907L251.353 445.622L246.713 442.055L251.692 394.856L421.134 222.461ZM543.841 128.098C539.339 142.314 547.215 157.488 561.431 161.989C575.647 166.49 590.821 158.614 595.322 144.398C599.823 130.182 591.947 115.009 577.731 110.508C563.515 106.006 548.342 113.882 543.841 128.098Z" fill="#6395C4"/>
<path d="M534.005 126.035C540.007 107.08 560.238 96.579 579.193 102.58C598.148 108.582 608.648 128.813 602.647 147.768C596.645 166.723 576.414 177.224 557.459 171.222C538.505 165.221 528.004 144.99 534.005 126.035ZM543.841 128.1C539.34 142.316 547.215 157.489 561.431 161.99C575.647 166.491 590.821 158.616 595.322 144.4C599.823 130.184 591.947 115.01 577.731 110.509C563.515 106.008 548.342 113.884 543.841 128.1Z" fill="#124B81"/>
<path d="M462.771 215.191C453.166 207.43 317.755 343.573 249.875 410.54L246.841 439.999C320.081 364.938 471.124 221.94 462.771 215.191Z" fill="#124B81"/>
<path d="M174.523 458.587C187.822 439.222 190.329 423.958 187.044 388.473L209.581 440.432C203.964 450.384 200.61 454.29 194.556 460.465L218.345 511.798C220.849 511.59 227.234 511.298 232.743 511.798C238.252 512.299 242.551 522.023 244.012 526.823C232.634 529.294 224.635 527.768 209.581 523.693L174.523 458.587Z" fill="#124B81"/>
<path d="M107.099 239.519C116.071 261.465 172.016 284.208 203.835 310.951L141.113 303.442C118.94 289.513 85.5365 287.987 57.8036 277.503L69.9984 274.439C43.7504 263.25 33.2409 237.301 30.6031 222.174L38.9382 228.224C31.3616 202.702 31.4952 190.586 38.8179 160.937L46.579 177.27C51.0849 154.28 59.4376 141.128 79.5939 126.091L79.7991 134.184C95.8167 123.843 110.313 116.045 131.696 113.165L121.86 126.939C151.056 119.436 169.227 128.898 196.792 112.265C190.284 151.277 179.11 168.9 140.688 178.056L152.698 184.18C111.491 185.559 98.1271 217.573 107.099 239.519Z" fill="#4AB0E3"/>
<path d="M327.898 394.11C300.814 381.032 286.26 370.766 261.54 347.785L173.271 321.492L212.085 429.168L267.174 506.168L310.37 432.924L327.898 394.11Z" fill="#124B81"/>
<path d="M130.702 522.441V460.465L124.442 463.595L111.922 504.912L113.174 543.725C117.973 546.438 128.977 550.063 134.459 550.612C140.719 551.238 148.022 550.194 151.361 549.36C151.987 547.273 152.864 542.223 151.361 538.717C149.859 535.212 136.963 526.406 130.702 522.441Z" fill="#94DBFF"/>
<path d="M173.897 290.191C150.033 308.798 138.652 320.473 120.686 343.403L170.767 322.744C209.409 346.054 230.783 357.665 268.426 374.078L262.792 349.037L229.613 307.72L173.897 290.191Z" fill="#94DBFF"/>
<path d="M182.663 393.484L171.395 317.109L119.435 344.654L118.809 357.801C121.313 377.625 128.826 416.146 128.826 424.159C128.826 432.172 115.471 451.286 108.793 459.842L111.923 513.679C115.197 495.411 118.013 484.56 128.826 461.72C137.799 457.129 156.621 446.57 160.127 441.061C163.632 435.552 176.612 407.047 182.663 393.484Z" fill="#59C2F6"/>
<path d="M215.841 412.892L173.272 320.867L170.768 327.753L178.28 391.607C200.312 426.299 205.223 445.995 213.963 481.128L267.175 523.697V497.405C241.04 478.376 228.861 462.069 215.841 412.892Z" fill="#94DBFF"/>
<path d="M263.418 528.705L257.158 447.322L310.37 431.672L312.874 481.753L295.971 525.575C332.205 543.431 353.384 551.066 391.752 563.136L326.646 560.006L257.158 549.364L263.418 528.705Z" fill="#4AB0E3"/>
<path d="M393.004 583.794C383.989 582.291 352.938 565.013 327.271 559.379L388.621 563.135H413.036C423.052 569.395 431.817 578.285 431.817 581.29C431.817 585.046 404.272 585.672 393.004 583.794Z" fill="#94DBFF"/>
<path d="M439.33 529.955L382.362 514.305L341.045 521.191L346.679 529.955L369.216 537.467L439.33 529.955Z" fill="#124B81"/>
<path d="M446.844 511.8L461.868 508.67L351.063 466.727L304.111 472.361L293.469 525.572L324.144 521.816L321.64 529.329L355.445 521.816L351.063 529.329L400.518 508.67L446.844 511.8Z" fill="#59C2F6"/>
<path d="M478.769 539.346C460.973 536.556 431.818 528.078 431.818 528.078L368.59 537.468L443.086 550.615L456.859 555.623L465.623 553.119L477.517 562.509H521.965C521.965 562.509 519.397 550.562 512.574 544.981C505.688 539.346 491.821 541.393 478.769 539.346Z" fill="#4AB0E3"/>
<path d="M352.313 389.728L374.224 414.769L392.378 422.907L436.826 456.712L440.582 473.615L471.883 500.534L461.241 508.672L395.508 496.152L371.094 500.534L374.224 492.395L344.801 500.534L357.321 485.509L327.898 489.891L339.167 476.119L285.955 471.111L306.614 466.103L271.557 431.672H295.345L271.557 409.135L295.345 407.257L276.565 384.72L323.516 393.484L319.76 379.086L352.313 400.997V389.728Z" fill="#94DBFF"/>
<path d="M388.625 392.23L359.828 440.434L382.991 444.816L417.422 450.45V396.613L399.893 428.54L391.129 422.279L388.625 392.23Z" fill="#94DBFF"/>
<path d="M421.8 469.232L405.523 466.102L414.914 475.492L426.185 477.996L421.8 469.232Z" fill="#124B81"/>
<path d="M381.24 428.687L388.756 391.746L369.972 422.428L375.613 433.062L381.24 428.687Z" fill="#124B81"/>
</g>
</svg>
