<svg width="539" height="505" viewBox="0 0 539 505" fill="none" xmlns="http://www.w3.org/2000/svg">
<g opacity="0.6">
<ellipse cx="268.537" cy="439.5" rx="251.5" ry="65.5" fill="#124B81"/>
<ellipse cx="268.537" cy="450" rx="251.5" ry="55" fill="#081129"/>
<path d="M114.175 288.062C187.781 280.448 204.86 275.125 214.43 225.879L150.979 246.184L95.1398 284.255C87.2462 301.761 80.2352 310.538 62.1447 326.133C57.8544 341.123 58.3394 359.128 64.6828 360.397C87.0731 334.873 96.7437 320.733 114.175 288.062Z" fill="#4AB0E3"/>
<path d="M279.154 197.962L203.012 190.348L162.402 251.262L279.154 197.962Z" fill="#59C2F6"/>
<path d="M459.358 156.082L392.099 147.199L369.256 161.159L389.56 167.504H439.053C432.285 179.771 418.495 206.844 417.479 216.996C416.464 227.149 427.632 251.26 439.053 249.991C439.388 214.534 445.255 193.708 459.358 156.082Z" fill="#124B81"/>
<path d="M355.293 109.125L319.76 81.206L314.684 58.3633L281.689 62.1704L265.191 87.5512C250.009 107.908 241.623 119.816 224.582 131.968L214.43 157.348L355.293 109.125Z" fill="#124B81"/>
<path d="M354.025 107.859L308.34 72.3257L313.416 65.9805L392.096 105.321L394.635 147.199L375.599 156.082L354.025 107.859Z" fill="#94DBFF"/>
<path d="M137.003 181.471L180.15 166.242L148.424 262.689C67.2055 289.339 21.5201 347.715 32.9415 389.593C22.8062 395.938 -1.32522 379.441 1.21546 368.02C21.3031 345.644 31.5786 330.381 46.9009 298.222C76.0888 289.339 110.353 243.654 109.084 218.273C116.126 203.705 122.082 195.459 137.003 181.471Z" fill="#14416F"/>
<path d="M352.757 106.59C292.45 120.616 261.412 130.978 214.432 156.082L200.473 191.616C230.455 196.444 246.805 198.639 276.615 199.23C299.202 196.343 311.527 193.256 332.453 181.463L439.052 194.154C453.911 211.288 458.584 220.674 463.164 237.301C465.702 246.515 507.58 252.529 510.118 243.646C485.419 221.646 472.704 208.391 454.281 181.463C418.748 175.118 402.608 170.677 376.869 156.082C372.455 137.029 366.45 126.204 352.757 106.59Z" fill="#4AB0E3"/>
<path d="M114.392 168.253C122.186 165.655 151.672 157.207 165.746 152.997L136.422 182.321C127.881 190.501 119.08 195.071 111.504 202.173C102.267 210.834 79.268 224.306 68.9234 229.959L76.1405 221.66C61.3455 232.485 43.6635 227.433 38.6116 225.268L53.7675 220.752C39.0352 219.28 20.5827 215.178 9.02139 203.617C9.02139 203.617 17.7321 205.356 22.0122 203.617C22.0127 203.617 22.0132 203.617 22.0137 203.617C21.5305 203.476 15.3075 201.553 4.33027 194.235H24.1773C9.1845 179.675 4.32527 171.916 0 158.51L9.02139 163.923C4.73483 149.357 4.48817 141.33 9.02139 126.755L13.7125 145.158C15.2928 135.174 12.63 118.094 24.1773 106.186V116.361C24.9539 111.246 62.1471 81.5512 66.7583 67.5742C76.1515 73.5382 86.9662 88.5039 85.5228 105.825C85.5228 105.825 88.4096 104.742 89.4922 103.66C90.1037 104.63 88.4096 109.433 86.9662 112.32C85.1602 115.932 79.3883 125.311 67.1192 130.724C70.896 131.02 74.4332 131.412 77.9448 132.889C72.1711 134.693 63.6153 139.279 60.9852 141.189C60.5041 144.918 60.1913 154.396 62.7895 162.479C65.3876 170.562 79.9903 176.673 86.9668 178.718C92.8608 176.312 106.597 170.851 114.392 168.253Z" fill="#94DBFF"/>
<path d="M517.733 120.549L532.961 115.473L463.164 53.29L392.098 35.5234L338.798 41.8686L312.148 71.0566C341.681 83.0916 357.724 91.0265 383.215 110.397C390.967 124.958 392.689 133.289 393.367 148.468L399.712 138.316V148.468L421.286 120.549L417.479 138.316L444.129 112.935L439.052 123.087L479.662 110.397L517.733 120.549Z" fill="#59C2F6"/>
<path d="M139.56 265.218C172.554 258.873 209.988 205.138 224.604 131.969C199.953 155.447 188.422 161.121 166.207 170.04C143.506 217.837 134.668 240.392 139.56 265.218Z" fill="#94DBFF"/>
<path d="M163.671 153.542C187.51 148.026 200.943 143.093 224.585 131.969C193.383 162.377 174.307 174.127 135.752 182.73C144.649 171.552 150.788 164.911 163.671 153.542Z" fill="#4AB0E3"/>
<path d="M313.418 71.0662C328.862 59.8791 338.795 54.6067 360.372 48.2235L351.489 60.904C369.256 53.2997 422.309 50.471 445.398 55.8278C463.167 65.3217 481.855 82.3751 493.622 92.6399L529.155 116.742L538.038 114.214L512.657 90.1018V78.6805C501.305 61.4067 492.636 52.0012 474.586 35.5331L460.626 12.6904L458.088 22.8427L449.205 8.88328L445.398 21.5737C403.924 6.5592 380.922 2.35323 340.068 0L364.179 17.7666C343.416 17.9573 331.204 19.6958 309.611 24.1118L323.57 32.995C291.163 51.7001 275.988 62.6129 252.504 86.2947L299.458 65.9901L290.575 92.6399L313.418 71.0662Z" fill="#94DBFF"/>
<path d="M473.152 68.8118L492.531 79.4648L484.611 84.8751L473.152 68.8118Z" fill="#21556E"/>
</g>
</svg>
