<svg width="726" height="600" viewBox="0 0 726 600" fill="none" xmlns="http://www.w3.org/2000/svg">
<g opacity="0.6">
<rect x="145.918" y="115" width="235.536" height="205.388" rx="18.8429" fill="#081129"/>
<rect x="160.994" y="115" width="220.462" height="205.388" rx="18.8429" fill="#124B81"/>
<circle cx="270.283" cy="218.639" r="62.1816" fill="#081129"/>
<ellipse cx="255.668" cy="218.641" rx="8" ry="7.5" fill="#6395C4"/>
<ellipse cx="290.668" cy="218.641" rx="8" ry="7.5" fill="#6395C4"/>
<path d="M333.672 396.446C343.171 391.035 378.894 369.285 395.567 359.086L365.56 363.775C349.871 364.966 314.296 367.713 297.51 369.168C280.724 370.623 246.947 381.432 232.156 386.655L246.789 386.881C222.921 391.916 212.215 413.918 209.871 420.846L227.81 409.847C216.178 425.746 203.846 447.668 205.025 469.391C205.025 469.391 211.042 459.218 216.567 456.524C216.567 456.523 216.568 456.523 216.568 456.522C216.278 457.126 212.654 464.999 210.149 482.373L227.783 462.716C228.883 490.501 232.251 502.208 241.686 518.403L244.34 504.659C254.958 521.846 262.689 529.222 281.154 537.682L267.094 516.685C278.387 523.991 292.938 541.803 314.992 540.946L304.914 531.906C310.67 535.681 373.128 525.227 391.068 533.078C393.507 518.475 388.293 494.467 369.855 480.507C369.855 480.507 373.492 478.609 375.526 478.499C375.108 477.031 368.845 474.441 364.704 473.306C359.521 471.886 345.104 469.269 328.842 476.612C331.904 472.608 334.659 468.757 336.316 463.966C329.399 468.082 317.255 472.481 313.027 473.39C308.906 470.553 299.24 462.441 293.542 452.686C287.845 442.931 294.767 423.038 298.94 414.312C306.56 410.611 324.173 401.858 333.672 396.446Z" fill="#4AB0E3"/>
<path d="M471.383 102.81L512.298 83.9258L562.656 188.838C565.696 207.5 567.43 236.4 562.656 255.474L557.573 247.96C551.831 266.988 541.16 282.201 523.839 300.044L517.544 296.897L479.776 191.985L471.383 102.81Z" fill="#94DBFF"/>
<path d="M378.02 387.124C430.68 335.765 462.233 314.593 524.896 298.998L435.169 201.641L344.329 310.376C344.329 310.376 325.746 344.786 319.27 406.008L378.02 387.124Z" fill="#59C2F6"/>
<path d="M534.326 247.586C523.894 216.574 514.706 199.286 489.214 168.902L464.035 216.113L489.214 287.453L515.442 298.993C526.141 280.832 530.811 269.74 534.326 247.586Z" fill="#59C2F6"/>
<path d="M319.256 407.059C331.461 345.597 352.982 326.078 406.333 306.344L400.038 353.554L343.386 413.354L319.256 407.059Z" fill="#14416F"/>
<path d="M674.902 401.812C608.332 363.369 583.373 330.676 549.008 263.328L526.977 294.802L607.759 379.78C620.141 394.113 627.319 400.32 640.281 409.155C658.963 411.862 667.029 410.988 674.902 401.812Z" fill="#94DBFF"/>
<path d="M572.047 342.175L603.837 347.955C603.837 347.955 592.277 334.083 581.844 320.211C570.698 304.064 560.367 285.589 549.008 263.328L526.977 294.802L572.047 342.175Z" fill="#14416F"/>
<path d="M519.639 296.9C499.012 287.675 488.949 279.275 472.429 261.23L467.184 283.262V317.883C501.222 327.228 520.579 334.224 555.309 349.356C572.257 366.399 577.567 377.68 580.488 398.665L598.323 416.5C613.217 416.457 620.763 415.672 630.846 410.205C607.448 385.756 595.281 369.236 574.194 337.816C551.844 324.47 539.828 315.722 519.639 296.9Z" fill="#4AB0E3"/>
<path d="M359.119 357.752C374.063 334.725 384.612 324.027 407.379 307.395C411.226 311.241 419.758 322.921 423.116 338.868C426.473 354.815 397.237 385.379 382.2 398.668C378.79 410.516 404.257 409.951 460.884 406.012C457.562 419.699 446.573 424.625 418.919 431.19C387.744 419.558 369.593 417.322 337.088 418.601C354.586 395.639 361.648 382.499 359.119 357.752Z" fill="#94DBFF"/>
<path d="M429.416 222.408L402.139 241.292C413.103 228.307 418.936 220.364 429.416 208.655H413.681C413.681 208.655 423.507 201.719 437.957 193.049L428.131 191.893C439.671 185.535 451.865 178.682 461.655 172.819L444.315 171.001C444.315 171.001 456.453 149.121 465.086 133.515L456.453 139.295C456.453 139.295 461.655 121.955 472.43 102.809C476.758 132.249 480.299 147.59 490.265 171.001C481.132 191.578 477.225 202.959 472.43 222.408C495.39 250.246 502.607 265.572 512.296 292.699C495.867 286.844 487.491 279.62 472.43 262.274C467.132 247.971 461.382 240.181 447.251 226.604L440.956 244.439L429.416 222.408Z" fill="#94DBFF"/>
<path d="M564.752 25.1788C558.784 14.171 554.943 7.92601 544.818 0L518.59 40.9156C505.225 65.9605 500.818 79.6734 495.51 103.863L516.492 96.5188C525.093 138.189 524.055 158.586 513.345 190.939C528.945 205.275 535.478 213.823 544.818 229.757C549.245 221.214 556.064 207.473 559.338 199.988L572.054 208.658C572.054 208.658 574.366 162.418 568.948 135.336C547.819 94.6199 546.704 70.3398 564.752 25.1788Z" fill="#4AB0E3"/>
<path d="M516.491 36.7191L544.817 0L522.786 51.4068H513.344C505.336 71.1544 499.134 86.3186 495.178 104.04C482.462 104.04 471.536 103.128 456.691 102.814L475.576 84.9785L478.723 74.4874L507.049 36.7191H516.491Z" fill="#94DBFF"/>
<path d="M509.915 69.728L511.004 49.707L518.537 54.0525L509.915 69.728Z" fill="#14416F"/>
<path d="M184.918 432.5C196.418 430.5 262.259 415.529 335.418 432.5C408.577 449.471 447.418 465.5 519.609 477.725C784.418 522.568 767.418 273 564.918 239.5" stroke="#124B81" stroke-width="14.8473"/>
<path d="M26.7926 465.729C31.474 464.427 67.4512 458.095 84.932 455.332L91.2521 472.422C75.187 476.513 38.5981 482.642 30.3701 482.909C17.5652 483.325 16.7262 468.53 26.7926 465.729Z" fill="#6395C4"/>
<path d="M40.8336 437.46C45.515 436.158 81.4922 429.826 98.973 427.062L105.293 444.153C89.2281 448.243 52.6391 454.373 44.4111 454.64C31.6062 455.056 30.7673 440.26 40.8336 437.46Z" fill="#6395C4"/>
<path d="M99.7526 508.56C82.0508 467.429 76.6271 441.877 78.354 396.781C78.441 394.509 80.0094 392.56 82.2063 391.978L93.8909 388.879C95.3615 388.489 96.929 388.762 98.1814 389.625L150.258 425.542C151.429 426.35 152.881 426.644 154.275 426.353L181.299 420.726C184.136 420.135 186.909 421.974 187.469 424.818L190.743 441.457C191.284 444.207 189.55 446.893 186.82 447.531L159.678 453.882C158.379 454.186 157.245 454.978 156.513 456.094L122.845 507.369C122.023 508.62 120.702 509.457 119.22 509.666L105.24 511.638C102.928 511.965 100.676 510.706 99.7526 508.56Z" fill="#124B81"/>
</g>
</svg>
