<svg width="573" height="588" viewBox="0 0 573 588" fill="none" xmlns="http://www.w3.org/2000/svg">
<g opacity="0.6">
<rect x="64.1953" y="37.4727" width="271.703" height="363.519" rx="7.49525" fill="#124B81"/>
<rect x="86.6816" y="62.4609" width="228.605" height="320.422" rx="7.49525" fill="#081129"/>
<rect x="118.537" y="97.9414" width="44.9715" height="44.9715" rx="7.49525" fill="#124B81"/>
<rect x="131.652" y="22.4844" width="136.788" height="22.4857" rx="6.12557" fill="#59C2F6"/>
<rect x="163.08" width="75.257" height="44.6292" rx="14.9905" fill="#59C2F6"/>
<rect x="180.373" y="97.9414" width="101.186" height="14.9905" rx="7.49525" fill="#124B81"/>
<rect x="180.373" y="127.922" width="101.186" height="14.9905" rx="7.49525" fill="#124B81"/>
<rect x="118.537" y="178.516" width="44.9715" height="44.9715" rx="7.49525" fill="#124B81"/>
<rect x="180.373" y="178.516" width="101.186" height="14.9905" rx="7.49525" fill="#124B81"/>
<rect x="180.373" y="208.5" width="101.186" height="14.9905" rx="7.49525" fill="#124B81"/>
<rect x="118.537" y="259.09" width="44.9715" height="44.9715" rx="7.49525" fill="#124B81"/>
<rect x="180.373" y="259.09" width="101.186" height="14.9905" rx="7.49525" fill="#124B81"/>
<rect x="180.373" y="289.07" width="101.186" height="14.9905" rx="7.49525" fill="#124B81"/>
<rect y="333.355" width="226.93" height="182.355" rx="8.10465" fill="#124B81"/>
<path d="M87 333H137V389.948C137 392.186 135.186 394 132.948 394H91.0523C88.8143 394 87 392.186 87 389.948V333Z" fill="#59C2F6"/>
<path d="M262.026 545.48C260.737 528.73 262.026 502.533 262.026 490.078L286.936 481.488C285.79 486.069 282.727 499.183 279.634 514.987C276.542 530.792 276.628 550.491 277.058 558.364C279.634 557.648 285.991 556.646 290.801 558.364C295.611 560.082 301.108 570.819 303.256 575.973H264.173C263.458 571.821 263.133 559.868 262.026 545.48Z" fill="#94DBFF"/>
<path d="M323.009 455.721C333.66 438.885 353.502 416.925 362.091 408.049L357.367 310.129C352.07 311.704 337.783 318.117 323.009 331.173C304.541 347.493 289.08 394.735 278.773 430.382C270.527 458.899 264.171 482.062 262.023 490.079L276.717 548.105C278.526 531.143 280.054 519.442 286.074 497.809C293.948 490.795 312.358 472.556 323.009 455.721Z" fill="#124B81"/>
<path d="M456.578 465.603C458.296 448.08 461.589 410.487 463.02 393.881L495.66 389.586C486.355 417.645 467.745 476.512 467.745 487.506C467.745 498.501 471.753 510.984 473.757 515.851C476.334 515.565 483.034 515.164 489.218 515.851C495.403 516.539 500.957 527.877 502.961 533.46H467.745C466.17 529.022 463.02 519.717 463.02 517.999C463.02 516.281 456.149 509.266 452.713 505.974C453.286 499.818 454.86 483.126 456.578 465.603Z" fill="#59C2F6"/>
<path d="M336.753 414.922C336.753 414.922 331.17 348.783 359.516 329.027C330.741 329.027 262.884 484.068 166.252 495.234C195.886 517.137 233.508 521.432 268.896 509.407C307.864 496.165 326.875 455.722 328.593 407.192L336.753 414.922Z" fill="#59C2F6"/>
<path d="M377.984 302.403C403.419 298.622 417.665 296.167 442.406 280.07C449.511 290.629 455.796 293.989 469.462 297.249C437.414 312.354 416.458 310.235 377.984 302.403Z" fill="#124B81"/>
<path d="M504.251 385.715L517.135 370.684L527.872 417.926L548.916 492.654C549.489 494.802 550.72 499.612 551.063 501.673C551.407 503.735 551.207 512.553 551.063 516.705C552.352 517.134 556.303 518.509 561.8 520.57C567.298 522.632 571.249 536.031 572.537 542.473H542.474C541.615 538.894 539.811 530.878 539.468 527.442C539.124 524.006 533.026 513.699 530.019 508.974C530.878 507.113 532.424 498.066 531.737 476.764C531.05 455.462 508.832 418.928 497.809 403.324L504.251 385.715Z" fill="#94DBFF"/>
<path d="M538.607 336.754C535.171 325.073 530.161 305.403 530.877 298.102C521.092 318.659 522.136 336.926 514.986 370.253C516.418 380.99 519.882 405.384 522.287 417.066C524.692 428.748 542.186 476.334 550.633 498.666C543.609 468.305 540.672 449.254 536.459 413.201C538.75 407.331 543.246 388.892 544.62 379.272C546.338 367.247 542.902 351.356 538.607 336.754Z" fill="#59C2F6"/>
<path d="M493.942 397.316C476.763 407.28 447.129 401.754 433.815 399.464L372.4 324.306L419.643 318.293L528.729 328.171C528.729 361.67 511.121 387.352 493.942 397.316Z" fill="#124B81"/>
<path d="M440.686 588L386.572 516.277L449.705 571.25C454.286 570.391 464.393 568.673 468.172 568.673C471.952 568.673 483.777 581.557 489.217 588H440.686Z" fill="#94DBFF"/>
<path d="M379.706 322.586C370.143 322.257 364.878 324.17 355.655 331.175C346.631 340.194 344.575 359.607 344.918 371.975C345.262 384.344 355.082 410.914 359.95 422.653C371.259 423.226 395.682 430.899 402.897 457.011C410.112 483.123 401.179 505.542 385.718 516.279C407.543 545.714 421.292 558.901 450.569 572.111C435.206 556.706 428.622 547.005 421.365 527.016C421.365 525.441 421.966 519.457 424.371 508.119C426.776 496.781 446.561 453.576 456.152 433.39C445.11 399.936 437.577 381.336 418.358 348.784C407.026 335.251 398.908 329.194 379.706 322.586Z" fill="#59C2F6"/>
<path d="M507.685 306.695C497.034 301.884 476.333 298.391 467.314 297.246C435.461 311.227 413.417 309.545 377.983 302.4C326.446 311.848 277.057 380.135 266.32 392.589C264.498 394.703 250 447.992 224.661 464.312C196.315 478.484 172.265 481.491 172.265 481.491L192.021 485.785C183.861 487.933 175.271 491.798 162.816 493.945C172.694 497.381 197.947 503.823 219.937 502.105C247.423 499.958 293.806 477.196 303.255 430.813C312.879 383.565 332.583 334.242 362.952 328.168C414.489 317.861 447.013 344.201 488.358 338.905L476.333 344.488C498.236 346.206 509.677 343.355 528.729 328.168C526.152 323.015 518.335 311.505 507.685 306.695Z" fill="#94DBFF"/>
<path d="M390.868 203.192L420.501 184.295L412.341 142.206L439.828 174.417L435.533 140.488L470.75 184.295V204.909V270.619L439.828 253.011C422.219 250.863 376.867 252.581 372.4 250.863C367.934 249.145 352.215 237.55 352.215 237.55L387.432 219.082L390.868 203.192Z" fill="#94DBFF"/>
<path d="M421.79 264.176C427.803 261.313 438.969 252.151 438.969 252.151L449.276 256.875V225.523L466.885 232.825L464.308 213.498L466.026 178.281C479.34 187.3 496.089 198.467 512.409 209.203L503.82 211.78L533.883 233.683H521.428L553.209 277.49L544.62 276.201L557.075 302.829L543.761 295.098L546.338 320.437L536.46 301.97L538.607 334.181L528.729 328.168C527.155 325.448 521.944 318.462 513.698 312.277C503.39 304.547 492.224 305.835 469.462 298.105C451.252 291.92 444.123 284.361 442.834 281.355C419.469 296.575 406.565 298.5 384.426 301.54C389.007 299.679 399.457 297.246 412.342 287.368C422.778 279.367 431.811 268.328 434.674 263.317L421.79 264.176Z" fill="#59C2F6"/>
<path d="M420.502 211.351L400.316 210.062L403.752 217.793L420.502 211.351Z" fill="#124B81"/>
</g>
</svg>
