<svg width="612" height="525" viewBox="0 0 612 525" fill="none" xmlns="http://www.w3.org/2000/svg">
<g opacity="0.8">
<rect x="57.6387" width="412.732" height="331.66" rx="14.7404" fill="#6395C4"/>
<rect x="98.1738" y="32.9492" width="331.66" height="58.9618" rx="7.37022" fill="#124B81"/>
<rect x="98.1738" y="272.484" width="331.66" height="18.4256" rx="7.37022" fill="#124B81"/>
<rect x="98.1738" y="217.207" width="331.66" height="36.8511" rx="7.37022" fill="#124B81"/>
<rect x="98.1738" y="110.336" width="331.66" height="81.0724" rx="7.37022" fill="#124B81"/>
<path d="M537.973 474.291L504.555 437.586L536.329 443.064L565.912 479.769L596.043 508.804L601.521 509.9C606.999 513.552 616.313 521.404 609.739 523.596C603.165 525.787 590.199 524.509 584.538 523.596L567.008 502.23L537.973 474.291Z" fill="#59C2F6"/>
<path d="M520.99 417.865L516.06 403.621L496.885 401.43L485.381 410.195C491.787 419.344 494.032 423.89 496.885 431.561L507.842 440.874L545.095 464.43L539.616 447.995L520.99 417.865Z" fill="#124B81"/>
<path d="M92.0396 451.279C99.0519 441.637 108.475 424.253 112.309 416.766L141.891 417.861C136.596 423.34 124.142 436.488 116.691 445.253C109.241 454.018 93.8647 481.41 87.1081 494.01C87.4733 495.288 88.2038 499.05 88.2038 503.871C88.2038 508.692 86.0124 512.089 84.9168 513.184H60.2643L54.2392 509.349C54.0565 507.523 54.3487 502.666 56.9783 497.845C60.2653 491.819 83.2743 463.331 92.0396 451.279Z" fill="#94DBFF"/>
<path d="M507.297 489.088L481.549 463.34L460.184 468.27L475.523 481.418C478.262 485.618 486.48 495.662 497.436 506.619C508.393 517.575 519.897 515.932 524.28 513.74L521.541 506.619L507.297 489.088Z" fill="#59C2F6"/>
<path d="M261.316 362.534L226.803 357.056L256.386 329.664L291.995 340.073C301.513 355.066 306.352 363.562 312.813 378.969C312.813 380.065 313.032 387.296 309.526 398.691C305.143 412.935 306.786 426.631 307.334 431.561C307.882 436.492 315.004 444.161 330.891 457.309C343.601 467.828 357.37 475.205 362.665 477.579C364.309 477.762 368.144 478.346 370.335 479.222C372.526 480.099 377.457 488.353 379.648 492.37C375.448 493.101 366.171 494.562 362.665 494.562C359.159 494.562 333.082 478.127 320.482 469.909C310.256 461.144 289.584 443.285 288.708 441.97C287.612 440.326 283.777 435.944 283.777 433.205C283.777 430.465 288.708 409.648 288.708 404.717C288.708 399.787 288.708 394.856 285.421 388.282C282.791 383.023 268.255 368.925 261.316 362.534Z" fill="#94DBFF"/>
<path d="M261.316 362.534L226.803 357.056L256.386 329.664L291.995 340.073C301.513 355.066 306.352 363.562 312.813 378.969C312.813 380.065 313.032 387.296 309.526 398.691C308.43 397.048 302.952 392.665 299.665 389.926C297.56 388.172 288.708 404.717 288.708 404.717C288.708 404.717 288.708 394.856 285.421 388.282C282.791 383.023 268.255 368.925 261.316 362.534Z" fill="#124B81"/>
<path d="M342.395 261.184C332.753 261.622 308.429 267.21 297.473 269.949L387.865 331.854L425.118 390.472L439.909 381.159L434.979 301.175L374.169 258.992C367.595 259.54 352.037 260.745 342.395 261.184Z" fill="#124B81"/>
<path d="M173.664 308.845C185.497 304.901 231.186 291.132 252.552 284.741L225.707 306.654C212.742 319.072 183.305 347.194 169.28 360.342C155.256 373.49 120.341 393.942 104.636 402.525L115.593 389.925C93.1316 406.36 66.2878 398.69 58.6181 395.403L81.6271 388.547C59.2612 386.313 31.2475 380.085 13.6958 362.533C13.6958 362.533 26.92 365.173 33.4178 362.533C33.4188 362.533 33.4197 362.534 33.4206 362.534C32.691 362.321 23.2431 359.402 6.574 348.289H36.7048C13.9434 326.186 6.56642 314.406 0 294.054L13.6958 302.271C7.18818 280.158 6.81372 267.973 13.6958 245.845L20.8177 273.784C23.2167 258.626 19.1742 232.697 36.7048 214.618V230.065C37.8838 222.301 94.3486 177.219 101.349 156C115.609 165.054 132.028 187.774 129.836 214.07C129.836 214.07 134.219 212.427 135.863 210.783C136.791 212.256 134.219 219.549 132.028 223.931C129.286 229.415 120.523 243.653 101.897 251.871C107.631 252.321 113.001 252.915 118.332 255.158C109.567 257.897 96.5776 264.859 92.5847 267.758C91.8542 273.419 91.3795 287.809 95.3239 300.08C99.2683 312.352 121.437 321.628 132.029 324.733C140.977 321.08 161.831 312.79 173.664 308.845Z" fill="#4AB0E3"/>
<path d="M301.312 345.556L258.033 338.982C260.042 336.973 265.374 332.408 270.633 330.217C275.893 328.025 295.103 324.19 304.051 322.547C311.356 326.016 327.937 334.161 335.825 338.982C343.714 343.803 362.487 363.269 370.339 372.948L393.896 382.261L382.939 394.861C368.062 390.081 360.643 386.584 348.426 379.522C346.052 376.417 339.77 369.003 333.634 364.182C327.498 359.361 309.53 349.756 301.312 345.556Z" fill="#59C2F6"/>
<path d="M155.583 382.803L180.784 354.316L284.872 278.715L334.177 301.176L391.151 336.237L401.56 370.751L395.534 383.351L369.786 374.586C365.586 369.107 355.323 356.398 347.873 349.385C340.422 342.373 315.551 328.568 304.046 322.541L260.767 338.429L201.601 377.325C189.549 384.629 164.239 400.115 159.418 403.621C154.597 407.127 141.705 418.96 135.861 424.438L105.73 441.969L112.304 416.769C119.792 411.838 135.752 401.429 139.696 399.238C143.641 397.047 151.931 387.368 155.583 382.803Z" fill="#4AB0E3"/>
<path d="M220.228 351.573C229.431 346.314 266.428 313.956 283.776 298.434C292.542 298.434 312.589 298.617 321.577 302.268C339.107 309.39 331.986 313.773 342.395 325.277C350.722 334.481 368.325 340.252 378.004 344.999L400.465 371.295C388.431 388.139 380.476 395.265 364.308 404.165C371.064 408 386.769 416.985 395.534 422.244C404.3 427.503 447.031 459.131 467.3 474.288C477.517 474.124 482.13 473.131 485.379 467.166C480.448 462.601 467.3 449.088 451.413 438.131C431.199 424.19 422.378 414.574 414.708 408.548C410.856 405.521 422.561 393.574 427.856 388.826L423.474 354.313L404.847 328.564C396.813 323.817 379.099 306.761 361.569 298.434C344.038 290.107 321.577 278.164 299.116 269.398C294.003 270.494 280.708 273.781 268.437 278.164C253.098 283.642 244.88 288.573 234.471 294.599C224.063 300.625 190.645 332.399 182.975 340.617C176.839 347.191 170.558 362.347 168.184 369.104L190.645 363.626C196.671 361.8 211.024 356.833 220.228 351.573Z" fill="#94DBFF"/>
<path d="M409.783 338.977L445.392 340.62L518.254 351.577L550.576 394.308L569.75 435.943C566.646 436.308 559.561 436.381 556.055 433.752C551.672 430.465 544.002 418.96 531.95 413.482C522.308 409.099 505.289 413.847 497.984 416.769L499.628 410.195L481.001 416.769V404.169L460.732 418.96L465.662 396.499L443.201 416.769L439.366 396.499L421.836 404.169L426.218 391.569L421.836 361.438L409.783 338.977Z" fill="#59C2F6"/>
<path d="M535.78 278.161C537.423 288.935 545.093 321.44 545.093 321.44L558.789 313.77C560.407 317.547 556.598 333.492 552.215 343.353L571.389 331.301C573.959 334.75 565.911 358.145 562.624 362.527L567.006 379.51V398.136L577.963 435.937H569.198C567.006 433.928 560.213 423.337 550.571 412.38C540.93 401.423 523.728 386.084 500.719 379.51L505.649 375.127L464.562 379.51L478.805 362.527H444.292L464.562 350.475L431.692 351.571L443.196 342.257L410.874 323.631L436.074 325.822L426.213 321.44L392.795 305.553L426.213 298.431L380.195 278.161H403.752L376.908 263.917L350.064 251.865L376.908 246.934H390.056L364.856 229.404H387.317L422.378 241.456L407.039 215.16L460.179 249.126L449.77 222.83L491.405 251.865L529.206 295.144L535.78 278.161Z" fill="#94DBFF"/>
<path d="M559.886 396.494L552.764 386.633L553.312 395.946L558.79 406.355L559.886 396.494Z" fill="#124B81"/>
</g>
</svg>
