<svg width="550" height="552" viewBox="0 0 550 552" fill="none" xmlns="http://www.w3.org/2000/svg">
<g opacity="0.6">
<path d="M445.585 13.2734L360.562 96.9021L376.591 114.325L458.129 27.9085L445.585 13.2734Z" fill="#6395C4"/>
<path d="M2.35156 480.202C66.9991 386.552 168.892 283.841 347.32 103.176L356.38 119.902L2.35156 480.202Z" fill="#6395C4"/>
<path d="M7.13849 475.002C99.4672 408.482 200.105 304.541 377.142 122.512L360.237 113.791L7.13849 475.002Z" fill="#124B81"/>
<path d="M345.926 130.355C352.199 100.388 335.594 75.2992 305.506 81.5714C308.714 69.0935 312.146 63.1024 325.716 57.1797C327.807 76.693 357.774 91.3281 370.318 102.479C382.165 114.326 398.891 147.777 418.405 147.777C413.627 161.191 408.227 165.158 396.104 168.685C397.796 136.627 374.5 122.689 345.926 130.355Z" fill="#124B81"/>
<path d="M444.887 13.9669V1.42257C449.765 0.729646 461.612 -2.06064 468.582 2.81638C472.667 5.67552 474.157 18.8491 472.066 26.5112L458.128 27.905L444.887 13.9669Z" fill="#124B81"/>
<path d="M27.4248 13.2734L112.447 96.9021L96.4184 114.325L14.8805 27.9085L27.4248 13.2734Z" fill="#6395C4"/>
<path d="M470.656 480.202C406.009 386.552 304.116 283.841 125.688 103.176L116.628 119.902L470.656 480.202Z" fill="#6395C4"/>
<path d="M465.871 475.002C373.543 408.482 272.904 304.541 95.8681 122.512L112.773 113.791L465.871 475.002Z" fill="#124B81"/>
<path d="M127.081 130.355C120.809 100.388 137.414 75.2992 167.502 81.5714C164.294 69.0935 160.862 63.1024 147.292 57.1797C145.201 76.693 115.234 91.3281 102.69 102.479C90.8423 114.326 74.1166 147.777 54.6033 147.777C59.3807 161.191 64.781 165.158 76.9042 168.685C75.2116 136.627 98.5083 122.689 127.081 130.355Z" fill="#124B81"/>
<path d="M28.1211 13.9669V1.42257C23.2428 0.729646 11.3954 -2.06064 4.42631 2.81638C0.340723 5.67552 -1.14894 18.8491 0.94178 26.5112L14.8799 27.905L28.1211 13.9669Z" fill="#124B81"/>
<path d="M253.255 358.223C272.163 359.274 307.746 326.711 337.946 312.924L311.029 355.597C293.38 366.819 280.829 390.392 263.76 406.805L265.729 396.958C248.66 412.057 226.338 410.744 214.521 407.462L221.743 403.523C200.734 400.24 192.04 395.991 173.161 380.545H187.604C172.563 369.414 165.939 358.88 162 339.184L167.909 341.81C165.939 326.711 165.283 313.58 170.535 297.167L177.1 308.985C181.695 285.35 194.75 275.485 192.2 249.898C218.112 267.966 226.995 282.068 220.43 312.924L228.964 306.359C215.834 336.558 234.348 357.173 253.255 358.223Z" fill="#4AB0E3"/>
<path d="M459.402 171.116C462.028 165.864 470.125 157.986 473.846 154.703L519.145 246.615L525.71 347.062L488.945 358.879L420.668 284.693L440.363 269.593L423.294 271.563L448.242 240.706L431.829 242.02L449.555 217.728L420.668 215.102L451.524 188.842C453.056 185.122 456.776 176.368 459.402 171.116Z" fill="#59C2F6"/>
<path d="M325.471 468.515C343.853 442.911 352.388 425.842 338.601 401.551L354.357 382.512H393.092C393.092 384.919 393.5 394.074 389.5 406.574C385.057 420.458 380.741 433.245 379.5 434.574C372.147 442.452 350.418 463.919 345.166 470.485L361.579 516.441C363.549 515.784 370.77 516.178 376.022 517.754C381.274 519.329 383.244 526.288 384.557 530.227H352.388L325.471 468.515Z" fill="#124B81"/>
<path d="M481.065 530.887C472.88 500.27 470.543 476.162 466.622 432.41L459.4 510.535V532.2L465.309 549.27C481.861 551.901 488.809 552.47 498.135 549.926C497.916 548.394 497.084 544.543 495.509 541.392C493.933 538.24 485.223 533.076 481.065 530.887Z" fill="#59C2F6"/>
<path d="M423.948 283.379L448.896 286.005L458.744 358.878L433.14 386.452C422.417 385.357 400.051 382.775 396.375 381.2C392.698 379.624 365.956 351.219 353.045 337.213C364.614 319.489 375.673 310.365 406.223 296.509L423.948 283.379Z" fill="#124B81"/>
<path d="M406.879 368.727L355.014 328.68L309.715 408.774L320.219 437.661C335.551 421.139 343.477 410.863 355.014 389.079L379.305 386.453C386.965 390.392 404.253 399.977 417.383 404.179C430.513 408.381 437.735 410.087 439.048 410.744L457.431 366.101L406.879 368.727Z" fill="#94DBFF"/>
<path d="M500.76 500.03C499.71 489.526 502.511 445.758 504.043 425.188L486.974 467.861L483.035 503.313L489.6 523.008C490.913 527.823 494.59 537.583 496.165 538.108C497.741 538.633 508.639 542.704 527.678 541.391C527.24 538.764 525.577 532.331 522.426 527.604C518.487 521.695 509.952 524.321 507.326 521.695C505.858 520.227 502.073 513.16 500.76 500.03Z" fill="#4AB0E3"/>
<path d="M490.257 357.568L452.836 284.695L444.957 286.008L431.17 311.612V329.338C438.094 345.211 441.21 353.758 444.301 369.386C442.331 395.646 431.17 415.998 433.797 421.907C435.561 425.873 454.645 485.309 459.401 516.445L468.592 421.907L476.471 409.433L490.257 357.568Z" fill="#59C2F6"/>
<path d="M349.762 343.124C360.791 323.692 393.311 303.515 408.192 295.855L339 312.074C318.5 329.574 299.867 361.507 299.867 361.507C299.867 350.041 293.958 406.15 290.676 422.563C288.05 435.693 270.324 451.668 261.789 458.014L247.346 530.888L270.98 473.771L320.219 437.663C323.501 403.524 338.732 362.557 349.762 343.124Z" fill="#59C2F6"/>
<path d="M265.73 524.978L283.456 463.922L265.73 475.083L246.691 530.23V542.704H278.204C277.649 534.656 274.969 530.762 265.73 524.978Z" fill="#94DBFF"/>
<path d="M483.036 503.968C483.947 472.147 482.301 451.914 477.127 408.774L521.77 359.535C518.255 382.676 515.068 393.104 507.983 408.774L504.701 425.187L483.036 503.968Z" fill="#124B81"/>
<path d="M518.487 340.497L467.279 295.198C478.164 318.667 483.565 332.03 489.601 356.91L475.814 410.088L502.075 388.423V397.614C516.559 381.049 523.383 370.666 528.992 346.406L536.213 359.536V308.328L543.435 320.802C545.07 296.067 545.178 282.335 538.183 259.09L550 268.281C542.783 244.012 538.1 230.51 527.679 207.225V173.743C530.086 169.366 535.163 159.431 536.213 154.704C537.264 149.977 534.463 143.981 532.931 141.574L513.235 160.613L519.144 127.13C519.144 119.909 515.861 115.313 509.953 114L488.944 146.826L473.844 154.704L471.875 165.865C472.969 168.491 475.551 175.844 477.127 184.247C478.703 192.65 479.972 214.009 480.41 223.638L488.944 201.973C489.82 205.693 491.702 214.578 492.227 220.355C492.752 226.133 486.756 250.336 483.692 261.716C503.738 291.453 510.402 308.867 518.487 340.497Z" fill="#94DBFF"/>
<path d="M523.083 152.077L519.144 125.816L511.922 163.894L523.083 152.077Z" fill="#124B81"/>
<path d="M456.776 196.719L431.828 212.475L461.371 209.849L456.776 196.719Z" fill="#124B81"/>
<path d="M484.927 158.974L481.217 177.738L474.684 172.625L484.927 158.974Z" fill="#14416F"/>
</g>
</svg>
