<svg width="649" height="496" viewBox="0 0 649 496" fill="none" xmlns="http://www.w3.org/2000/svg">
<g opacity="0.8">
<path d="M64 291.657C65.178 233.299 74.3211 201.286 103.737 144.703L186.961 193.438C166.524 231.521 162.103 252.991 161.469 291.657H64Z" fill="#94DBFF"/>
<path d="M648.067 291.658H558.095C555.314 251.553 550.082 229.871 531.104 193.439L609.829 148.453C637.79 200.551 644.971 232.238 648.067 291.658Z" fill="#082641"/>
<path d="M259.688 120.712L211.703 38.2379C264.203 10.7625 296.292 2.75767 358.657 0V94.4702C317.731 95.7266 296.121 101.704 259.688 120.712Z" fill="#4AB0E3"/>
<path d="M211.704 38.2383C167.468 62.9805 132.229 97.4696 103.738 144.705L186.962 193.439C207.928 161.049 221.68 144.007 259.689 120.712L211.704 38.2383Z" fill="#59C2F6"/>
<path d="M504.86 41.237C454.626 11.9962 417.888 2.24929 358.656 0V93.7205C399.171 95.9959 421.113 101.065 457.625 121.462L504.86 41.237Z" fill="#124B81"/>
<path d="M531.102 193.44C508.349 157.892 492.347 142 457.625 121.463L504.86 41.2383C553.59 72.6474 579.836 100.47 609.827 148.454L531.102 193.44Z" fill="#0E3961"/>
<path d="M525.107 167.945L367.657 241.422C325.669 234.674 322.075 273.662 331.665 289.407C343.663 309.108 379.652 314.899 390.899 278.161L525.107 167.945Z" fill="#124B81"/>
<path d="M181.59 345.887L188.698 317.453L234.58 378.844C225.533 386.599 206.663 402.367 203.562 403.401C200.46 404.435 172.543 410.724 158.972 413.74L142.817 468.023C145.832 468.884 152.639 470.866 155.741 471.9C158.843 472.934 163.065 480.947 164.788 484.824H134.416L129.246 466.73L142.171 404.693L176.42 384.66L181.59 345.887Z" fill="#124B81"/>
<path d="M285.631 338.778L247.504 305.82L269.475 358.164L310.187 371.089L338.621 387.89L365.762 394.353L383.857 355.579L343.145 364.626L285.631 338.778Z" fill="#94DBFF"/>
<path d="M409.059 405.338L405.828 389.829L464.634 377.551L462.049 395.645L504.054 411.801L532.487 442.173C534.472 451.502 534.657 456.457 532.487 465.437C525.074 463.01 520.779 460.848 512.455 453.159V440.234L491.776 421.494L409.059 405.338Z" fill="#124B81"/>
<path d="M188.049 316.158L250.086 305.172L281.751 360.747L279.812 397.582L246.855 435.062L281.751 479.652C285.413 479.436 293.771 479.135 297.906 479.652C302.042 480.169 306.092 490.207 307.6 495.161H275.289L221.006 437.001L233.931 411.152C233.069 408.136 230.699 400.425 228.115 393.704C225.53 386.983 207.651 366.778 199.035 357.516L188.049 316.158Z" fill="#59C2F6"/>
<path d="M454.94 493.225L412.289 446.051L460.109 475.777C463.771 475.777 472.517 476.165 478.204 477.716C483.89 479.267 487.466 488.701 488.543 493.225C477.238 494.622 469.708 494.465 454.94 493.225Z" fill="#94DBFF"/>
<path d="M521.501 360.104L577.722 376.906C575.783 378.198 571.389 380.912 569.321 381.429C567.253 381.946 540.026 377.767 526.67 375.613L490.482 391.122L491.774 384.014L453.647 400.17L457.525 388.538L424.567 402.754L425.86 394.354L400.657 402.108L393.549 393.061L396.78 388.538L421.336 345.241L476.265 336.84L521.501 360.104Z" fill="#59C2F6"/>
<path d="M539.595 282.559L518.916 309.7L535.072 321.332L539.595 282.559Z" fill="#59C2F6"/>
<path d="M278.521 281.912L376.747 276.742L414.874 312.284L390.964 367.859L359.945 375.614L300.493 352.996L235.225 312.284L249.441 296.775L278.521 281.912Z" fill="#4AB0E3"/>
<path d="M355.422 396.292L393.549 312.93L427.152 329.731L430.384 345.241L393.549 393.061L460.11 476.424L412.936 446.697L355.422 396.292Z" fill="#59C2F6"/>
<path d="M226.177 278.68H359.299C294.291 297.731 257.713 306.267 191.928 318.745C166.585 345.161 152.443 358.285 127.306 379.49L131.829 362.688L103.395 380.783C88.5269 382.924 80.0109 383.449 64.6221 383.368L79.4852 374.967L56.8675 373.674C41.8408 369.162 33.9665 364.995 20.0329 355.58H37.4808L7.75465 321.977L0 304.529L48.4666 321.977V316.807L74.3154 327.793H113.089C127.306 323.484 156.644 314.48 160.263 312.929C163.882 311.378 205.714 289.45 226.177 278.68Z" fill="#94DBFF"/>
<path d="M372.223 298.712L403.241 310.99L387.732 315.514L420.043 334.9L403.241 343.947L422.628 347.179L404.534 377.551L458.816 347.179L446.538 364.627L488.543 349.763L476.911 367.211L504.698 357.518L499.528 365.919L521.5 361.395L577.721 377.551L589.999 367.211L558.981 347.179L554.457 334.9L526.67 310.99V277.387L502.76 302.589L474.972 277.387V287.726L431.029 266.401L433.614 274.156L394.194 258L400.657 266.401L359.298 268.986L368.346 275.448L353.482 277.387L383.209 293.542L372.223 298.712Z" fill="#94DBFF"/>
<path d="M513.747 312.282L527.318 276.094L502.115 301.943L497.592 310.99L499.53 327.145L513.747 312.282Z" fill="#124B81"/>
<path d="M547.995 340.071L535.07 338.133L542.825 345.887L549.287 348.472L547.995 340.071Z" fill="#124B81"/>
</g>
</svg>
